PathFileType	4	(X/Y/Z)	C:/Users/beibeiliu/ov580/test_trc/User1\sequence.14_training_dense_left.trc
DataRate	CameraRate	NumFrames	NumMarkers	Units	OrigDataRate	OrigDataStartFrame	OrigNumFrames
120	120	22	19	mm	120	1	267
Frame#	Time	ThumbCMC			ThumbMCP			ThumbIP			ThumbTip			IndexMCP			IndexPIP			IndexTip			MiddleMCP			MiddlePIP			MiddleTip			RingMCP			RingPIP			RingTip			PinkyMCP			PinkyPIP			PinkyTip			BackHand1			BackHand2			BackHand3	
		X0	Y0	Z0	X1	Y1	Z1	X2	Y2	Z2	X3	Y3	Z3	X4	Y4	Z4	X5	Y5	Z5	X6	Y6	Z6	X7	Y7	Z7	X8	Y8	Z8	X9	Y9	Z9	X10	Y10	Z10	X11	Y11	Z11	X12	Y12	Z12	X13	Y13	Z13	X14	Y14	Z14	X15	Y15	Z15	X16	Y16	Z16	X17	Y17	Z17	X18	Y18	Z18	
0	0	-166.8	85.4013	83.3903	-141.814	72.8409	77.0811	-116.016	69.636	66.9839	-93.4151	64.2248	59.5613	-175.986	74.3376	-4.63343	-171.477	69.9278	-28.9906	-171.004	66.8274	-59.2141	-201.575	72.6921	-16.2702	-201.458	68.2168	-44.2168	-203.314	61.1922	-73.3941	-223.519	65.2719	-12.3269	-225.774	62.8365	-35.779	-227.908	55.4522	-60.8568	-252.03	49.1465	9.17775	-258.681	44.8279	-5.04365	-266.635	47.0253	-29.5858	-229.089	81.3095	38.9065	-237.07	91.9766	75.2784	-199.999	95.167	58.1542	
1	0.00833333	-167.833	82.8904	80.8279	-140.99	72.5151	75.5809	-120.002	65.9923	63.4101	-94.6097	62.5198	59.2869	-176.745	74.0397	-6.21085	-173.401	70.1983	-33.5906	-173.057	65.7226	-60.7354	-201.193	72.2827	-19.0655	-200.932	68.4627	-41.9772	-203.966	61.1871	-73.7338	-228.322	64.8443	-10.8349	-224.924	62.1492	-36.5453	-227.67	55.507	-66.3282	-249.122	50.1506	11.8401	-261.634	43.8945	-9.86865	-269.413	47.2851	-27.5941	-231.944	80.1369	42.2102	-235.988	92.3732	72.2697	-198.889	93.4999	56.5483	
2	0.0166667	-168.609	83.3483	81.7379	-143.953	72.4307	76.178	-115.496	67.1049	62.1921	-98.8751	62.6837	60.4467	-171.722	75.0462	-10.2247	-173.896	70.5716	-32.2982	-169.789	67.2163	-57.4617	-203.863	73.5302	-16.6849	-201.338	68.8108	-44.0465	-201.13	62.914	-72.9041	-223.497	66.7882	-9.74411	-225.41	61.7139	-41.853	-228.604	55.1962	-66.1394	-251.393	51.446	9.89244	-261.102	44.6135	-8.57476	-267.807	45.5735	-29.6109	-232.711	81.6559	40.5436	-235.131	91.8305	71.5241	-200.9	94.2409	58.2324	
3	0.025	-164.332	84.3513	77.0019	-142.882	72.231	72.3857	-117.928	67.4562	62.1733	-98.8382	63.8127	61.5873	-174.717	75.019	-10.7332	-170.034	72.4497	-36.5497	-175.442	66.2258	-57.8251	-201.818	74.7713	-16.2192	-202.033	69.6347	-47.2761	-204.215	62.9328	-74.8507	-223.437	67.3719	-13.3813	-226.737	62.5902	-41.5409	-226.8	56.9121	-62.348	-246.709	52.5305	8.94034	-257.168	47.2881	-10.9978	-268.34	48.4837	-30.3784	-230.475	80.9836	37.0752	-238.783	91.9032	68.8613	-199.073	94.9913	54.355	
4	0.0333333	-169.89	84.1955	78.536	-141.271	73.4501	70.5441	-117.021	70.1306	63.8743	-95.9999	66.3674	60.7442	-172.639	77.081	-8.42481	-172.264	73.0334	-32.599	-171.394	68.5167	-58.031	-200.113	76.1874	-22.878	-199.506	69.7466	-50.3835	-202.094	64.3941	-74.2394	-228.272	66.0069	-13.2141	-226.044	63.5965	-43.9414	-229.184	55.7707	-67.7057	-252.342	50.7529	7.33614	-255.495	47.3805	-11.1766	-268.339	48.4949	-31.9894	-231.922	82.6862	36.3802	-233.597	93.5224	67.0732	-200.172	94.3774	53.4418	
5	0.0416667	-168.596	84.371	74.0634	-143.032	74.4748	69.8549	-117.291	70.1986	58.4291	-95.4182	67.5986	58.8708	-172.292	77.5994	-8.03904	-175.062	71.6652	-37.5579	-172.348	67.8622	-59.0147	-204.309	74.4446	-22.4887	-200.903	70.7296	-48.408	-205.492	63.2665	-76.1261	-229.089	66.158	-14.0243	-229.355	62.9173	-44.2507	-230.942	56.337	-65.4203	-250.493	52.4574	6.19125	-255.545	47.8967	-10.1346	-268.139	46.1266	-32.3075	-229.513	83.4819	39.3924	-236.71	92.4055	68.1415	-197.81	95.5529	54.414	
6	0.05	-166.973	85.7198	74.4725	-140.87	75.577	69.7542	-120.733	69.1169	60.9814	-98.5495	66.9487	56.8736	-176.552	76.2156	-13.6931	-172.421	72.6247	-33.9159	-175.415	67.266	-59.9242	-205.566	74.0143	-23.5249	-201.145	70.6705	-46.6084	-204.18	64.5415	-78.468	-224.733	67.2908	-12.4547	-228.285	63.1821	-41.903	-227.753	57.6358	-69.9855	-252.623	51.0404	6.37052	-260.01	45.8324	-14.9079	-268.844	46.2103	-34.7112	-228.572	81.295	39.6985	-238.958	91.917	69.0957	-202.067	96.6236	54.4946	
7	0.0583333	-169.372	88.1509	77.8217	-143.514	76.7007	71.1797	-116.632	73.3246	58.4078	-96.7744	70.0916	57.6107	-176.311	78.9191	-13.4375	-172.412	73.9608	-39.7028	-177.176	68.9633	-61.1233	-204.316	75.5457	-24.2099	-202.695	71.0387	-48.5463	-201.198	64.7937	-82.19	-225.05	68.2854	-14.895	-230.913	62.7543	-43.3386	-230.288	56.5756	-67.1947	-253.469	51.7565	2.80694	-258.078	46.9874	-12.8809	-269.455	45.1721	-38.409	-234.49	81.3582	38.0615	-239.242	92.0598	66.3481	-199.992	98.9878	52.9109	
8	0.0666667	-169.384	87.331	74.6305	-143.372	76.8179	67.4679	-121.193	72.8134	56.7104	-96.4062	70.8611	51.8107	-176.597	80.2079	-11.8791	-174.055	75.1157	-41.1714	-171.993	70.4852	-66.3076	-204.396	77.2957	-21.5947	-205.77	70.9099	-52.8556	-204.149	64.6232	-80.3249	-227.356	67.9456	-17.3602	-230.563	63.2614	-43.8192	-227.162	56.7086	-70.831	-252.002	51.4639	6.17902	-257.122	46.3352	-12.8454	-268.915	44.7158	-36.9076	-232.026	81.0332	36.0141	-240.922	91.047	68.6638	-202.403	96.7546	53.5228	
9	0.075	-173.859	89.2785	75.146	-142.053	82.1375	69.3912	-120.14	79.7596	59.9616	-101.058	73.5906	52.6961	-176.424	82.8662	-13.6789	-177.206	77.6741	-37.2022	-175.95	72.6454	-64.1281	-204.151	79.4571	-24.6582	-202.583	74.6921	-51.7439	-203.174	65.7444	-79.7909	-224.638	69.8059	-19.4058	-231.207	64.2008	-43.5046	-227.328	56.097	-70.1362	-246.918	51.3337	3.9844	-257.437	43.0093	-16.6225	-264.51	41.6765	-38.6879	-236.292	80.2133	35.4255	-242.25	89.8729	63.8525	-204.227	98.4859	53.8695	
10	0.0833333	-174.914	95.5685	72.7445	-146.694	89.1909	67.5816	-122.415	87.7496	55.9056	-99.6648	86.5088	50.1287	-180.19	86.9152	-15.7768	-175.215	83.7272	-39.1703	-175.714	76.8223	-67.3401	-206.578	81.1604	-27.489	-203.445	76.3147	-52.062	-204.887	65.6359	-81.0175	-229.513	66.0968	-18.9211	-228.698	63.4494	-45.7323	-223.492	56.597	-73.5249	-244.112	48.1398	1.34934	-252.159	40.2752	-19.3509	-257.913	36.8855	-41.5752	-237.824	78.1554	34.3385	-244.071	85.5871	61.8394	-210.64	99.9453	51.3114	
11	0.0916667	-184.268	100.54	73.1679	-151.006	103.745	68.2617	-127.773	105.602	55.0135	-108.183	103.441	45.8593	-183.281	95.6595	-17.5464	-177.928	91.5209	-42.9442	-176.523	84.0227	-64.7684	-208.635	82.9418	-26.0465	-205.66	76.9536	-55.7346	-200.151	67.4317	-85.9839	-226.176	63.8819	-18.847	-222.188	61.7244	-46.9014	-219.441	52.9679	-71.4783	-236.947	42.6089	-6.26963	-239.477	35.0861	-20.3631	-247.592	28.4118	-45.407	-239.501	74.5154	30.599	-250.036	78.4983	61.6424	-213.926	100.735	49.134	
12	0.1	-191.4	109.503	65.9057	-161.255	113.415	60.861	-136.532	123.598	50.597	-115.615	127.733	41.43	-189.934	103.281	-21.2629	-182.799	100.584	-44.7728	-178.143	91.529	-66.0687	-209.548	85.0965	-30.3713	-204.122	77.6971	-59.2052	-197.135	68.4885	-83.8232	-224.265	59.6346	-22.5481	-216.782	59.0324	-51.8818	-210.964	50.1382	-74.327	-229.457	35.8208	-2.84553	-228.326	28.7212	-20.8572	-232.184	23.2296	-48.3863	-235.042	71.2131	28.4056	-248.827	72.5002	62.6634	-223.155	99.5041	48.8376	
13	0.108333	-198.288	114.141	66.8193	-167.73	125.751	56.5505	-147.069	135.85	42.1892	-126.257	141.624	32.8658	-201.287	102.975	-20.9431	-193.441	101.849	-45.9409	-181.365	93.5603	-72.7992	-214.058	82.6385	-34.6302	-204.155	78.8837	-61.0373	-192.93	70.9745	-84.8098	-220.97	58.7202	-26.4502	-215.301	54.6469	-50.1177	-204.935	49.0641	-74.0355	-221.629	34.9839	-9.08012	-218.083	23.5014	-27.5105	-218.191	20.5048	-50.254	-235.67	65.5545	27.1185	-249.35	66.5161	58.8885	-232.162	98.4048	48.1307	
14	0.116667	-205.343	118.373	62.3477	-177.326	128.899	53.5901	-156.993	141.323	38.0845	-138.623	148.056	26.0336	-208.344	102.89	-27.0618	-199.286	100.489	-50.6756	-184.262	94.67	-74.23	-216.951	81.989	-33.7791	-205.593	78.8345	-61.7295	-188.673	68.7794	-90.4453	-220.358	56.6166	-27.3687	-212.659	52.0052	-54.3522	-199.979	48.8967	-74.6918	-217.425	29.2602	-9.44919	-212.992	23.4643	-25.193	-208.43	17.2123	-53.9313	-238.838	58.0369	28.3204	-245.966	61.0508	58.0808	-236.676	93.7925	43.49	
15	0.125	-209.297	118.31	58.5133	-181.573	130.551	44.8727	-162.738	144.637	26.2871	-145.434	151.708	19.8409	-214.079	104.383	-28.5803	-203.47	103.639	-54.3762	-186.329	93.1011	-79.0965	-220.43	77.0791	-35.3507	-205.411	78.1341	-66.6264	-188.38	71.1459	-88.5654	-221.342	53.7302	-27.6534	-211.601	52.4711	-54.8761	-196.513	47.228	-77.0755	-213.887	28.478	-10.0584	-206.622	25.8588	-29.0621	-199.671	22.8134	-55.2666	-236.624	57.4941	24.617	-245.745	57.377	57.8749	-240.785	93.5904	39.2303	
16	0.133333	-213.665	119.113	56.3241	-184.727	133.61	37.4219	-168.676	142.804	21.5115	-150.662	152.722	6.43045	-219.46	101.649	-29.5234	-205.178	97.7104	-58.4581	-188.998	93.0761	-78.2243	-222.262	73.5422	-35.9018	-207.625	72.2642	-66.4175	-187.072	69.2289	-88.4018	-220.58	55.272	-30.9325	-210.429	49.074	-59.1157	-192.73	47.3903	-82.0588	-210.749	29.8659	-12.8046	-203.335	26.0848	-30.3166	-193.786	25.0579	-54.339	-238.008	54.4005	27.855	-246.21	56.0363	55.3972	-243.542	89.1611	37.217	
17	0.141667	-214.475	120.496	51.0397	-187.102	130.23	36.57	-170.359	140.929	16.9411	-152.437	150.818	1.24885	-222.763	102.723	-32.011	-207.07	95.7187	-60.5763	-188.777	92.1435	-78.4176	-223.515	72.8492	-42.3575	-208.999	73.4151	-67.3645	-182.697	67.9231	-91.4201	-221.83	50.5317	-32.8852	-211.602	47.867	-58.5245	-191.542	52.1479	-80.6854	-211.82	31.7769	-12.0463	-200.937	25.4175	-34.3905	-192.638	26.8322	-54.4234	-238.485	54.8546	24.1628	-244.43	52.4266	54.807	-244.435	86.0891	37.949	
18	0.15	-214.948	120.826	46.726	-188.203	128.082	31.5789	-169.85	140.342	7.3129	-154.986	142.67	-7.4204	-224.549	99.9244	-33.1955	-210.23	96.6606	-61.3188	-187.396	89.7398	-78.7796	-227.095	72.7763	-40.9351	-207.87	69.324	-71.3858	-186.117	67.8378	-87.9203	-223.154	50.3244	-32.0373	-209.691	46.383	-61.7506	-188.954	49.9381	-83.0669	-211.123	30.9624	-13.0921	-201.009	29.1683	-36.7593	-192.836	31.0458	-57.0632	-237.873	54.8998	25.617	-244.45	51.8466	57.7173	-242.926	84.7381	38.4483	
19	0.158333	-214.729	117.212	45.9723	-187.196	129.779	26.956	-172.413	135.604	4.29075	-155.312	140.74	-13.4274	-226.419	96.1656	-38.6031	-212.566	95.1125	-59.9685	-186.094	91.1141	-77.1474	-227.849	71.0181	-44.6721	-210.671	74.1226	-70.0834	-184.139	70.2969	-86.9839	-222.475	47.8817	-36.3203	-210.596	49.0282	-59.9806	-187.593	51.9737	-81.3495	-211.91	29.6041	-12.5324	-202.163	27.2578	-34.7478	-189.72	30.4309	-57.8792	-240.325	52.852	23.1036	-240.712	53.4067	59.7994	-245.255	89.5418	39.3747	
20	0.166667	-215.588	115.683	46.9821	-187.916	127.482	20.0857	-173.752	132.213	-4.15785	-156.906	133.661	-22.7907	-229.905	96.7869	-34.6499	-210.133	93.2397	-62.4167	-182.801	92.3456	-76.0051	-229.042	69.2162	-41.3901	-211.741	74.5614	-69.0475	-180.834	73.5561	-85.701	-223.613	48.8684	-33.5859	-206.947	48.5167	-64.0752	-186.226	55.1125	-77.9993	-212.064	31.3275	-14.0354	-201.354	29.5939	-35.61	-190.4	36.4259	-58.7317	-238.447	52.8366	24.5334	-240.983	53.7152	56.2856	-246.682	85.1953	36.0924	
21	0.175	-217.31	117.652	41.9865	-190.124	124.338	21.1748	-176.593	128.306	-7.14714	-162.152	126.036	-23.6418	-230.15	97.4026	-37.6362	-212.242	97.2087	-61.316	-184.302	96.2196	-72.0009	-230.354	74.1136	-45.6516	-208.042	73.4666	-69.566	-179.41	76.4952	-81.4055	-224.678	50.692	-33.2872	-206.326	52.4131	-62.9465	-182.977	55.984	-75.4736	-212.761	34.1133	-17.715	-200.87	34.2548	-39.1678	-188.968	38.4517	-57.8639	-240.48	53.391	23.6459	-241.115	53.2186	59.884	-247.287	86.5673	38.1704	
